<!DOCTYPE svg PUBLIC "-//W3C//DTD SVG 1.1//EN" "http://www.w3.org/Graphics/SVG/1.1/DTD/svg11.dtd">
<!-- Uploaded to: SVG Repo, www.svgrepo.com, Transformed by: SVG Repo Mixer Tools -->
<svg version="1.1" id="Layer_1" xmlns="http://www.w3.org/2000/svg" xmlns:xlink="http://www.w3.org/1999/xlink" viewBox="0 0 512 512" xml:space="preserve" width="800px" height="800px" fill="#000000">
<g id="SVGRepo_bgCarrier" stroke-width="0"/>
<g id="SVGRepo_tracerCarrier" stroke-linecap="round" stroke-linejoin="round"/>
<g id="SVGRepo_iconCarrier"> <g> <rect x="247.697" y="60.886" style="fill:#7F7774;" width="16.605" height="83.027"/> <rect x="170.205" y="60.886" style="fill:#7F7774;" width="16.605" height="83.027"/> </g> <rect x="325.189" y="60.886" style="fill:#858080;" width="16.605" height="83.027"/> <path style="fill:#b9babb;" d="M278.141,49.816V22.141C278.141,9.912,268.228,0,256,0c-12.228,0-22.141,9.912-22.141,22.141v27.676 c0,12.228,9.912,22.141,22.141,22.141C268.228,71.957,278.141,62.044,278.141,49.816z"/> <g> <path style="fill:#e6e8eb;" d="M200.649,49.816V22.141C200.649,9.912,190.736,0,178.508,0s-22.141,9.912-22.141,22.141v27.676 c0,12.228,9.912,22.141,22.141,22.141S200.649,62.044,200.649,49.816z"/> <path style="fill:#e6e8eb;" d="M355.632,49.816V22.141C355.632,9.912,345.72,0,333.492,0s-22.141,9.912-22.141,22.141v27.676 c0,12.228,9.912,22.141,22.141,22.141S355.632,62.044,355.632,49.816z"/> </g> <polygon style="fill:#514e4d;" points="344.562,437.276 344.562,481.557 134.227,481.557 134.227,221.405 344.562,221.405 344.562,265.686 289.211,351.481 "/> <rect x="311.351" y="221.405" style="fill:#5e5b5a;" width="66.422" height="260.151"/> <g> <polygon style="fill:#bfafab;" points="355.632,470.487 333.492,487.092 355.632,503.697 388.843,503.697 388.843,470.487 "/> <polygon style="fill:#bfafab;" points="344.562,265.686 344.562,437.276 311.351,437.276 289.211,351.481 311.351,265.686 "/> </g> <rect x="167.438" y="265.686" style="fill:#a7a1a0;" width="143.914" height="171.589"/> <polygon style="fill:#bfafab;" points="289.211,143.914 355.632,232.476 388.843,232.476 388.843,143.914 "/> <rect x="123.157" y="143.914" style="fill:#a7a1a0;" width="232.476" height="88.562"/> <polygon style="fill:#5e5b5a;" points="422.054,132.843 422.054,166.054 388.843,166.054 377.773,149.449 388.843,132.843 "/> <rect x="123.157" y="470.487" style="fill:#a7a1a0;" width="232.476" height="33.211"/> <rect x="89.946" y="132.843" style="fill:#514e4d;" width="298.897" height="33.211"/> <path style="fill:#5e5b5a;" d="M391.611,512H120.389c-4.586,0-8.303-3.717-8.303-8.303c0-4.585,3.716-8.303,8.303-8.303h271.222 c4.586,0,8.303,3.717,8.303,8.303C399.914,508.283,396.197,512,391.611,512z"/> <path style="fill:#FFFFFF;" d="M347.33,207.568H164.67c-4.586,0-8.303-3.717-8.303-8.303c0-4.585,3.716-8.303,8.303-8.303H347.33 c4.586,0,8.303,3.717,8.303,8.303C355.632,203.85,351.916,207.568,347.33,207.568z"/> </g>
</svg>